<?xml version="1.0" encoding="utf-8"?>
<!DOCTYPE svg PUBLIC "-//W3C//DTD SVG 1.0//EN" "http://www.w3.org/TR/2001/REC-SVG-20010904/DTD/svg10.dtd">
<svg version="1.0" xmlns="http://www.w3.org/2000/svg" width="152px" height="158px" viewBox="0 0 152 158" preserveAspectRatio="xMidYMid meet">
<g fill="#000000" stroke="#000000" stroke-width="1.5">
  <path d="M 68.93 154.32 c -1.10 -1.33 -3.30 -3.45 -3.92 -3.80 -6 -3.20 -12.40 -4.97 -21.65 -6.03 -4.93 -0.55 -15.55 0.08 -20.85 1.25 -0.63 0.15 -1.67 0.35 -2.38 0.47 -3.83 0.73 -10.40 2.28 -12.32 2.92 -0.57 0.20 -1.80 0.35 -2.72 0.35 -2.08 0 -3.20 -0.60 -3.58 -1.95 -0.15 -0.63 -0.25 -17.75 -0.25 -51.42 0 -49.90 0 -50.50 0.50 -51.30 0.28 -0.45 0.57 -0.82 0.68 -0.82 0.13 0 1 -0.17 1.95 -0.38 1.88 -0.43 7.32 -1.35 9.07 -1.55 l 1.05 -0.13 0 -4.20 c 0 -2.30 0.13 -4.50 0.25 -4.90 0.47 -1.38 1.50 -1.75 5.50 -2.08 2 -0.17 4.97 -0.43 6.63 -0.57 3.35 -0.28 12 -0.13 14.75 0.30 2.17 0.32 4.28 0.68 5.25 0.88 0.43 0.10 2.15 0.45 3.88 0.80 8.15 1.65 17.23 6.55 23.90 12.95 4.32 4.13 5.68 5.55 6.25 6.68 l 0.60 1.17 0 42.15 c 0 33.67 0.08 42.10 0.32 41.90 0.15 -0.15 1.42 -1.23 2.80 -2.42 3.50 -3 5.75 -4.55 10.05 -6.82 5.53 -2.95 12.07 -5.45 16.08 -6.15 7.05 -1.20 20.05 -1.42 27.83 -0.47 l 0.93 0.10 0 -21.35 0 -21.38 -1.42 -0.15 c -3.83 -0.38 -6.22 -1.92 -8.23 -5.28 -0.25 -0.43 -0.38 -0.43 -2.63 0.22 -1.30 0.38 -4.55 1.30 -7.22 2.08 -2.67 0.75 -5.95 1.70 -7.25 2.10 -1.30 0.40 -2.67 0.77 -3.05 0.85 -0.50 0.13 -1.98 1.77 -5.88 6.57 -2.88 3.55 -5.50 6.85 -5.85 7.32 -0.32 0.47 -1.38 1.75 -2.33 2.88 -1.77 2.08 -3.45 4.20 -4.20 5.35 -0.40 0.60 -0.45 1.52 -0.45 10.23 0 9 -0.03 9.63 -0.50 10.52 -0.52 1.08 -1 1.27 -3 1.27 -1.65 0 -2.42 -0.38 -2.97 -1.38 -0.38 -0.70 -0.40 -4.88 -0.40 -45.75 l 0 -45 0.63 -1.05 c 0.52 -0.88 6.10 -7.10 10.38 -11.57 l 1.08 -1.13 -0.50 -1.88 c -0.80 -3.05 -0.40 -7.70 0.88 -10.15 1.38 -2.63 6.22 -4.55 10.68 -4.25 2.75 0.20 3.67 0.47 5.30 1.58 1.48 1.02 1.67 1.23 2.63 2.80 1.92 3.17 2.35 7.30 1.15 10.90 -0.55 1.70 -0.88 2.20 -2.10 3.45 -1.63 1.63 -3.33 2.50 -5.75 2.92 -1.77 0.32 -4.53 0.15 -6.10 -0.40 -1 -0.32 -1 -0.32 -1.63 0.47 -0.35 0.43 -1.10 1.33 -1.67 1.98 -0.57 0.65 -1.20 1.45 -1.35 1.75 -0.17 0.32 -1.10 1.52 -2.08 2.67 -0.98 1.15 -2.25 2.70 -2.83 3.42 -0.57 0.70 -1.17 1.38 -1.30 1.48 -0.20 0.10 -0.28 4.05 -0.28 12.43 l 0 12.27 2.15 -2.60 c 1.17 -1.42 2.53 -3.17 2.97 -3.90 0.47 -0.70 1.63 -2.17 2.55 -3.25 1.75 -2 3.65 -4.32 6.18 -7.53 1.55 -1.95 2.25 -2.40 5.10 -3.17 0.77 -0.22 2.38 -0.68 3.55 -1 1.17 -0.32 2.75 -0.75 3.50 -0.98 0.75 -0.22 2.45 -0.65 3.75 -0.93 3.15 -0.70 3 -0.65 3 -1.15 0.03 -0.25 0.65 -1.52 1.45 -2.83 1.35 -2.22 1.52 -2.42 3.25 -3.40 2.28 -1.30 4 -1.67 7.32 -1.55 2.33 0.08 2.78 0.15 4.40 0.93 1.45 0.68 2 1.10 2.80 2.20 2.05 2.72 2.78 4.85 2.78 8.20 0 4.28 -2 8.25 -4.97 9.85 -4.65 2.47 -10.23 1.90 -13.65 -1.38 -0.43 -0.40 -1.25 -1.58 -1.88 -2.60 -0.60 -1.02 -1.13 -1.90 -1.13 -1.95 -0.05 -0.05 -5.72 1.60 -10.18 2.97 l -2.40 0.75 -1.45 1.85 c -0.77 1.02 -1.50 1.88 -1.60 1.88 -0.10 0 -1.35 1.50 -2.80 3.33 -1.45 1.80 -3.95 4.93 -5.55 6.93 -1.60 1.98 -2.90 3.72 -2.90 3.88 0 0.15 -0.30 0.55 -0.65 0.90 -0.35 0.32 -1.55 1.73 -2.67 3.10 -1.10 1.38 -2.08 2.55 -2.17 2.63 -0.68 0.47 -0.75 1.55 -0.75 10.25 l 0 9.02 0.95 -1.13 c 1.83 -2.17 4.63 -5.78 6.88 -8.82 0.43 -0.60 0.85 -1.08 0.95 -1.08 0.13 0 1.13 -1.17 2.22 -2.60 2.25 -2.90 2.35 -2.95 6.28 -4 1.30 -0.35 4.95 -1.38 8.10 -2.28 3.17 -0.93 5.97 -1.73 6.25 -1.80 0.28 -0.05 1.58 -0.47 2.90 -0.88 l 2.42 -0.77 0.25 -1.27 c 1 -4.97 6.15 -8.45 11.95 -8.07 4.75 0.32 8.10 3.05 9.45 7.65 0.57 2 0.55 6.05 -0.08 7.85 -0.55 1.60 -1.67 3.33 -2.88 4.47 l -0.82 0.77 0.13 35.72 0.13 35.70 -0.77 0.75 c -0.73 0.68 -0.95 0.75 -2.42 0.75 -0.93 0 -2.05 -0.17 -2.58 -0.40 -1.55 -0.65 -7.05 -2.35 -9.18 -2.83 -1.90 -0.43 -3.05 -0.65 -7.38 -1.33 -2.60 -0.40 -13.57 -0.40 -16.25 0.03 -3.65 0.55 -9.02 1.92 -11.82 3.03 -3.30 1.27 -5.75 2.88 -8 5.22 l -1.70 1.77 -8.38 0 -8.40 0 -0.52 -0.68 z  m 14.70 -7.57 c 0.08 -0.13 1.38 -1.10 2.90 -2.13 5.07 -3.53 10.18 -5.43 18.23 -6.78 2.92 -0.50 17 -0.60 20.88 -0.15 4.43 0.52 10.88 1.92 13.45 2.92 0.40 0.17 0.43 -0.17 0.38 -6.03 l -0.08 -6.22 -1.25 -0.17 c -0.68 -0.08 -2.15 -0.28 -3.25 -0.45 -3.08 -0.45 -10.68 -0.60 -13.13 -0.28 -7.95 1.05 -10.43 1.55 -14.82 3.05 -3.92 1.33 -7.50 3.03 -10.63 5.05 -1.40 0.93 -3 1.88 -3.55 2.15 -0.52 0.25 -1.48 0.90 -2.10 1.42 -3.15 2.67 -8.05 7.85 -7.45 7.85 0.15 0 0.35 -0.10 0.43 -0.25 z  m -12.27 -1.05 c -1.13 -1.85 -6.18 -7.70 -6.65 -7.70 -0.10 0 -1.45 -0.85 -2.95 -1.88 -3.05 -2.08 -8.18 -4.68 -11.52 -5.82 -8.05 -2.83 -15.73 -3.67 -26.90 -3.05 -6.35 0.35 -7.32 0.25 -8.20 -0.95 -0.50 -0.68 -0.50 -1.13 -0.57 -39.03 l -0.05 -38.35 -1.58 0.17 c -0.85 0.10 -2.25 0.28 -3.10 0.38 -0.85 0.10 -1.63 0.22 -1.70 0.30 -0.08 0.08 -0.10 20.73 -0.08 45.90 l 0.08 45.75 2.50 -0.70 c 4.53 -1.30 9.85 -2.35 15 -3.03 3.47 -0.45 20.80 -0.45 23.38 0 10.38 1.83 15.60 3.70 21.50 7.70 1 0.68 1.10 0.73 0.85 0.30 z  m 3.17 -49.13 l 0.05 -40.05 -1.10 -1.45 c -1.27 -1.70 -5.32 -5.75 -6.38 -6.40 -0.40 -0.22 -1.40 -0.93 -2.22 -1.52 -5.07 -3.75 -11.73 -6.82 -17.75 -8.25 -5.63 -1.33 -8.80 -1.65 -15.90 -1.65 -3.92 0 -7.18 0.13 -8.13 0.30 l -1.60 0.28 0 41.38 0 41.38 2.33 -0.17 c 8.35 -0.57 10.15 -0.50 20.63 0.85 5.18 0.68 9.13 1.92 14.68 4.63 5.40 2.63 8.55 4.75 12.35 8.27 1.75 1.65 2.88 2.60 2.95 2.50 0.03 -0.03 0.08 -18.05 0.10 -40.08 z  M143.05 67.07 C 143.05 64.97 141.35 63.28 139.25 63.28 137.15 63.28 135.45 64.97 135.45 67.07 135.45 69.15 137.15 70.85 139.25 70.85 141.35 70.85 143.05 69.15 143.05 67.07 Z M140.60 70.65  M138.98 36.92 C 138.98 34.75 137.23 33 135.05 33 132.90 33 131.15 34.75 131.15 36.92 131.15 39.10 132.90 40.85 135.05 40.85 137.23 40.85 138.98 39.10 138.98 36.92 Z M137.13 40.15  M109.97 11.20 C 109.97 9 108.20 7.22 106.03 7.22 103.82 7.22 102.07 9 102.07 11.20 102.07 13.38 103.82 15.15 106.03 15.15 108.20 15.15 109.97 13.38 109.97 11.20 Z M108.65 14.13 "/>
 </g>
 </svg>
