<?xml version="1.0" encoding="utf-8"?>
<!DOCTYPE svg PUBLIC "-//W3C//DTD SVG 1.0//EN" "http://www.w3.org/TR/2001/REC-SVG-20010904/DTD/svg10.dtd">
<svg version="1.0" xmlns="http://www.w3.org/2000/svg" width="152px" height="158px" viewBox="0 0 152 158" preserveAspectRatio="xMidYMid meet">
 <g fill="#000000">
  <path d="M 68.93 154.32 c -1.10 -1.33 -3.30 -3.45 -3.92 -3.80 -6 -3.20 -12.40 -4.97 -21.65 -6.03 -4.93 -0.55 -15.55 0.08 -20.85 1.25 -0.63 0.15 -1.67 0.35 -2.38 0.47 -3.83 0.73 -10.40 2.28 -12.32 2.92 -0.57 0.20 -1.80 0.35 -2.72 0.35 -2.08 0 -3.20 -0.60 -3.58 -1.95 -0.15 -0.63 -0.25 -17.75 -0.25 -51.42 0 -49.90 0 -50.50 0.50 -51.30 0.28 -0.45 0.57 -0.82 0.68 -0.82 0.13 0 1 -0.17 1.95 -0.38 1.88 -0.43 7.32 -1.35 9.07 -1.55 l 1.05 -0.13 0 -4.20 c 0 -2.30 0.13 -4.50 0.25 -4.90 0.47 -1.38 1.50 -1.75 5.50 -2.08 2 -0.17 4.97 -0.43 6.63 -0.57 3.35 -0.28 12 -0.13 14.75 0.30 2.17 0.32 4.28 0.68 5.25 0.88 0.43 0.10 2.15 0.45 3.88 0.80 8.15 1.65 17.23 6.55 23.90 12.95 4.32 4.13 5.68 5.55 6.25 6.68 l 0.60 1.17 0 42.15 c 0 33.67 0.08 42.10 0.32 41.90 0.15 -0.15 1.42 -1.23 2.80 -2.42 3.50 -3 5.75 -4.55 10.05 -6.82 5.53 -2.95 12.07 -5.45 16.08 -6.15 7.05 -1.20 20.05 -1.42 27.83 -0.47 l 0.93 0.10 0 -21.35 0 -21.38 -1.42 -0.15 c -3.83 -0.38 -6.22 -1.92 -8.23 -5.28 -0.25 -0.43 -0.38 -0.43 -2.63 0.22 -1.30 0.38 -4.55 1.30 -7.22 2.08 -2.67 0.75 -5.95 1.70 -7.25 2.10 -1.30 0.40 -2.67 0.77 -3.05 0.85 -0.50 0.13 -1.98 1.77 -5.88 6.57 -2.88 3.55 -5.50 6.85 -5.85 7.32 -0.32 0.47 -1.38 1.75 -2.33 2.88 -1.77 2.08 -3.45 4.20 -4.20 5.35 -0.40 0.60 -0.45 1.52 -0.45 10.23 0 9 -0.03 9.63 -0.50 10.52 -0.52 1.08 -1 1.27 -3 1.27 -1.65 0 -2.42 -0.38 -2.97 -1.38 -0.38 -0.70 -0.40 -4.88 -0.40 -45.75 l 0 -45 0.63 -1.05 c 0.52 -0.88 6.10 -7.10 10.38 -11.57 l 1.08 -1.13 -0.50 -1.88 c -0.80 -3.05 -0.40 -7.70 0.88 -10.15 1.38 -2.63 6.22 -4.55 10.68 -4.25 2.75 0.20 3.67 0.47 5.30 1.58 1.48 1.02 1.67 1.23 2.63 2.80 1.92 3.17 2.35 7.30 1.15 10.90 -0.55 1.70 -0.88 2.20 -2.10 3.45 -1.63 1.63 -3.33 2.50 -5.75 2.92 -1.77 0.32 -4.53 0.15 -6.10 -0.40 -1 -0.32 -1 -0.32 -1.63 0.47 -0.35 0.43 -1.10 1.33 -1.67 1.98 -0.57 0.65 -1.20 1.45 -1.35 1.75 -0.17 0.32 -1.10 1.52 -2.08 2.67 -0.98 1.15 -2.25 2.70 -2.83 3.42 -0.57 0.70 -1.17 1.38 -1.30 1.48 -0.20 0.10 -0.28 4.05 -0.28 12.43 l 0 12.27 2.15 -2.60 c 1.17 -1.42 2.53 -3.17 2.97 -3.90 0.47 -0.70 1.63 -2.17 2.55 -3.25 1.75 -2 3.65 -4.32 6.18 -7.53 1.55 -1.95 2.25 -2.40 5.10 -3.17 0.77 -0.22 2.38 -0.68 3.55 -1 1.17 -0.32 2.75 -0.75 3.50 -0.98 0.75 -0.22 2.45 -0.65 3.75 -0.93 3.15 -0.70 3 -0.65 3 -1.15 0.03 -0.25 0.65 -1.52 1.45 -2.83 1.35 -2.22 1.52 -2.42 3.25 -3.40 2.28 -1.30 4 -1.67 7.32 -1.55 2.33 0.08 2.78 0.15 4.40 0.93 1.45 0.68 2 1.10 2.80 2.20 2.05 2.72 2.78 4.85 2.78 8.20 0 4.28 -2 8.25 -4.97 9.85 -4.65 2.47 -10.23 1.90 -13.65 -1.38 -0.43 -0.40 -1.25 -1.58 -1.88 -2.60 -0.60 -1.02 -1.13 -1.90 -1.13 -1.95 -0.05 -0.05 -5.72 1.60 -10.18 2.97 l -2.40 0.75 -1.45 1.85 c -0.77 1.02 -1.50 1.88 -1.60 1.88 -0.10 0 -1.35 1.50 -2.80 3.33 -1.45 1.80 -3.95 4.93 -5.55 6.93 -1.60 1.98 -2.90 3.72 -2.90 3.88 0 0.15 -0.30 0.55 -0.65 0.90 -0.35 0.32 -1.55 1.73 -2.67 3.10 -1.10 1.38 -2.08 2.55 -2.17 2.63 -0.68 0.47 -0.75 1.55 -0.75 10.25 l 0 9.02 0.95 -1.13 c 1.83 -2.17 4.63 -5.78 6.88 -8.82 0.43 -0.60 0.85 -1.08 0.95 -1.08 0.13 0 1.13 -1.17 2.22 -2.60 2.25 -2.90 2.35 -2.95 6.28 -4 1.30 -0.35 4.95 -1.38 8.10 -2.28 3.17 -0.93 5.97 -1.73 6.25 -1.80 0.28 -0.05 1.58 -0.47 2.90 -0.88 l 2.42 -0.77 0.25 -1.27 c 1 -4.97 6.15 -8.45 11.95 -8.07 4.75 0.32 8.10 3.05 9.45 7.65 0.57 2 0.55 6.05 -0.08 7.85 -0.55 1.60 -1.67 3.33 -2.88 4.47 l -0.82 0.77 0.13 35.72 0.13 35.70 -0.77 0.75 c -0.73 0.68 -0.95 0.75 -2.42 0.75 -0.93 0 -2.05 -0.17 -2.58 -0.40 -1.55 -0.65 -7.05 -2.35 -9.18 -2.83 -1.90 -0.43 -3.05 -0.65 -7.38 -1.33 -2.60 -0.40 -13.57 -0.40 -16.25 0.03 -3.65 0.55 -9.02 1.92 -11.82 3.03 -3.30 1.27 -5.75 2.88 -8 5.22 l -1.70 1.77 -8.38 0 -8.40 0 -0.52 -0.68 z  m 14.70 -7.57 c 0.08 -0.13 1.38 -1.10 2.90 -2.13 5.07 -3.53 10.18 -5.43 18.23 -6.78 2.92 -0.50 17 -0.60 20.88 -0.15 4.43 0.52 10.88 1.92 13.45 2.92 0.40 0.17 0.43 -0.17 0.38 -6.03 l -0.08 -6.22 -1.25 -0.17 c -0.68 -0.08 -2.15 -0.28 -3.25 -0.45 -3.08 -0.45 -10.68 -0.60 -13.13 -0.28 -7.95 1.05 -10.43 1.55 -14.82 3.05 -3.92 1.33 -7.50 3.03 -10.63 5.05 -1.40 0.93 -3 1.88 -3.55 2.15 -0.52 0.25 -1.48 0.90 -2.10 1.42 -3.15 2.67 -8.05 7.85 -7.45 7.85 0.15 0 0.35 -0.10 0.43 -0.25 z  m -12.27 -1.05 c -1.13 -1.85 -6.18 -7.70 -6.65 -7.70 -0.10 0 -1.45 -0.85 -2.95 -1.88 -3.05 -2.08 -8.18 -4.68 -11.52 -5.82 -8.05 -2.83 -15.73 -3.67 -26.90 -3.05 -6.35 0.35 -7.32 0.25 -8.20 -0.95 -0.50 -0.68 -0.50 -1.13 -0.57 -39.03 l -0.05 -38.35 -1.58 0.17 c -0.85 0.10 -2.25 0.28 -3.10 0.38 -0.85 0.10 -1.63 0.22 -1.70 0.30 -0.08 0.08 -0.10 20.73 -0.08 45.90 l 0.08 45.75 2.50 -0.70 c 4.53 -1.30 9.85 -2.35 15 -3.03 3.47 -0.45 20.80 -0.45 23.38 0 10.38 1.83 15.60 3.70 21.50 7.70 1 0.68 1.10 0.73 0.85 0.30 z  m 3.17 -49.13 l 0.05 -40.05 -1.10 -1.45 c -1.27 -1.70 -5.32 -5.75 -6.38 -6.40 -0.40 -0.22 -1.40 -0.93 -2.22 -1.52 -5.07 -3.75 -11.73 -6.82 -17.75 -8.25 -5.63 -1.33 -8.80 -1.65 -15.90 -1.65 -3.92 0 -7.18 0.13 -8.13 0.30 l -1.60 0.28 0 41.38 0 41.38 2.33 -0.17 c 8.35 -0.57 10.15 -0.50 20.63 0.85 5.18 0.68 9.13 1.92 14.68 4.63 5.40 2.63 8.55 4.75 12.35 8.27 1.75 1.65 2.88 2.60 2.95 2.50 0.03 -0.03 0.08 -18.05 0.10 -40.08 z  M143.05 67.07 C 143.05 64.97 141.35 63.28 139.25 63.28 137.15 63.28 135.45 64.97 135.45 67.07 135.45 69.15 137.15 70.85 139.25 70.85 141.35 70.85 143.05 69.15 143.05 67.07 Z M140.60 70.65  M138.98 36.92 C 138.98 34.75 137.23 33 135.05 33 132.90 33 131.15 34.75 131.15 36.92 131.15 39.10 132.90 40.85 135.05 40.85 137.23 40.85 138.98 39.10 138.98 36.92 Z M137.13 40.15  M109.97 11.20 C 109.97 9 108.20 7.22 106.03 7.22 103.82 7.22 102.07 9 102.07 11.20 102.07 13.38 103.82 15.15 106.03 15.15 108.20 15.15 109.97 13.38 109.97 11.20 Z M108.65 14.13 "/>
 </g>
 <g fill="#ffffff">
  <path d="M 0 79 l 0 -79 76 0 76 0 0 79 0 79 -76 0 -76 0 0 -79 z  m 87.18 73.47 c 2.25 -2.35 4.70 -3.95 8 -5.22 2.80 -1.10 8.15 -2.47 11.82 -3.05 2.72 -0.40 15.13 -0.40 17.75 0 4.55 0.73 5.50 0.90 7.38 1.33 2.13 0.47 7.63 2.17 9.18 2.83 1.48 0.63 2.58 0.52 3.50 -0.35 l 0.77 -0.75 -0.13 -35.70 -0.15 -35.70 0.82 -0.80 c 2.17 -2.05 3.38 -4.80 3.38 -7.68 0 -6.97 -5.78 -11.98 -12.13 -10.50 -4.18 0.95 -7.43 4.05 -8.18 7.78 l -0.25 1.27 -2.42 0.77 c -1.33 0.40 -2.63 0.82 -2.90 0.88 -0.28 0.08 -3.08 0.88 -6.25 1.80 -3.15 0.90 -6.80 1.92 -8.10 2.28 -3.85 1.02 -4.07 1.17 -5.82 3.42 -0.85 1.13 -1.95 2.45 -2.45 2.95 -0.98 1.02 -2.88 3.38 -3.78 4.72 -0.55 0.80 -1.75 2.30 -4.05 5.13 -0.45 0.55 -1.20 1.52 -1.65 2.20 -0.43 0.65 -0.88 1.17 -0.98 1.17 -0.20 0 -0.13 -20.80 0.08 -21.67 0.08 -0.30 0.28 -0.70 0.45 -0.88 0.20 -0.17 1.25 -1.45 2.35 -2.83 1.13 -1.38 2.33 -2.78 2.67 -3.10 0.35 -0.35 0.65 -0.75 0.65 -0.90 0 -0.15 1.30 -1.90 2.90 -3.88 1.60 -2 4.10 -5.13 5.55 -6.93 1.45 -1.83 2.70 -3.33 2.80 -3.33 0.10 0 0.82 -0.85 1.60 -1.88 l 1.45 -1.85 2.40 -0.75 c 4.75 -1.48 10 -3 10.88 -3.15 0.70 -0.15 0.93 -0.10 0.93 0.17 0 0.60 2.40 4.20 3.30 4.95 1.25 1.05 3.20 1.98 4.82 2.33 1.85 0.38 4.20 -0.05 6.50 -1.17 1.48 -0.73 1.98 -1.15 2.95 -2.45 3.33 -4.47 3.20 -9.55 -0.35 -14.27 -0.80 -1.10 -1.35 -1.52 -2.80 -2.20 -3.25 -1.50 -6.88 -1.27 -10.23 0.63 -1.73 0.98 -1.90 1.17 -3.25 3.40 -0.80 1.30 -1.42 2.58 -1.45 2.83 0 0.50 0.15 0.45 -3 1.15 -1.30 0.28 -3 0.70 -3.75 0.93 -0.75 0.22 -2.33 0.65 -3.50 0.98 -1.17 0.32 -2.78 0.77 -3.55 1 -2.85 0.77 -3.55 1.23 -5.10 3.17 -2.50 3.20 -4.40 5.53 -6.15 7.50 -0.93 1.08 -2 2.42 -2.38 3 -0.38 0.60 -1.65 2.25 -2.83 3.70 -1.17 1.45 -2.53 3.15 -3 3.80 -0.47 0.65 -0.93 1.20 -1 1.20 -0.08 0 -0.10 -6.28 -0.05 -13.93 l 0.08 -13.95 0.70 -0.75 c 0.38 -0.40 0.98 -1.10 1.30 -1.52 0.32 -0.43 1.38 -1.70 2.35 -2.85 0.95 -1.15 2.03 -2.50 2.38 -3.03 1.30 -1.92 3.63 -4.47 4.07 -4.47 0.25 0 0.77 0.17 1.15 0.38 0.40 0.20 1.45 0.47 2.33 0.63 3.15 0.50 6.30 -0.57 8.68 -2.92 1.23 -1.25 1.55 -1.75 2.10 -3.45 0.40 -1.20 0.68 -2.55 0.68 -3.38 0 -2.15 -1.30 -5.65 -2.80 -7.53 -0.57 -0.70 -2.97 -2.22 -3.90 -2.45 -1.98 -0.50 -3.67 -0.57 -5.53 -0.17 -2.03 0.43 -4.50 1.58 -5.60 2.63 -2.20 2.03 -2.95 6.97 -1.70 11.10 l 0.60 1.95 -1.25 1.30 c -3.72 3.83 -10.02 10.82 -10.57 11.73 l -0.60 1.05 0 44.38 -0.03 44.40 0.57 0.80 c 0.63 0.88 1.63 1.20 2.95 0.98 0.68 -0.15 0.95 -0.38 1.35 -1.15 0.47 -0.93 0.50 -1.48 0.50 -10.55 0 -8.70 0.05 -9.63 0.45 -10.23 0.75 -1.15 2.42 -3.28 4.20 -5.35 0.95 -1.13 2 -2.40 2.33 -2.88 0.35 -0.47 2.97 -3.78 5.85 -7.32 3.90 -4.80 5.38 -6.45 5.88 -6.57 0.38 -0.08 1.75 -0.45 3.05 -0.85 1.30 -0.40 4.57 -1.35 7.25 -2.10 2.67 -0.77 6.05 -1.73 7.50 -2.15 1.45 -0.40 2.83 -0.75 3.08 -0.75 0.25 0 0.75 0.52 1.20 1.25 1.70 2.78 4.57 4.47 7.63 4.53 l 1.60 0.03 0.05 22.25 0.08 22.25 -2.38 -0.15 c -1.30 -0.10 -3.22 -0.30 -4.25 -0.43 -3.70 -0.50 -17.23 0.05 -22.25 0.90 -4 0.70 -10.55 3.20 -16.08 6.15 -4.35 2.30 -6.63 3.88 -9.95 6.80 -1.33 1.15 -2.53 2.15 -2.65 2.20 -0.13 0.05 -0.60 0.65 -1.05 1.30 -0.45 0.68 -0.88 1.15 -0.93 1.10 -0.08 -0.05 -0.10 -19.48 -0.10 -43.15 l 0 -43.03 -0.60 -1.20 c -0.57 -1.13 -1.92 -2.55 -6.25 -6.68 -6.68 -6.40 -15.75 -11.30 -23.90 -12.95 -1.73 -0.35 -3.45 -0.70 -3.88 -0.80 -1 -0.22 -3.13 -0.57 -5.25 -0.88 -2.88 -0.43 -9.95 -0.57 -13.20 -0.30 -1.67 0.15 -4.68 0.40 -6.68 0.57 -4 0.32 -5.03 0.70 -5.50 2.08 -0.13 0.40 -0.25 2.60 -0.25 4.90 l 0 4.20 -1.05 0.13 c -1.75 0.20 -7.20 1.13 -9.07 1.55 -0.95 0.20 -1.83 0.38 -1.95 0.38 -0.10 0 -0.40 0.38 -0.68 0.82 -0.50 0.80 -0.50 1.40 -0.50 50.55 0 33.17 0.10 50.05 0.25 50.67 0.47 1.73 2.47 2.38 4.80 1.60 1.92 -0.65 8.50 -2.20 12.32 -2.92 0.70 -0.13 1.75 -0.32 2.38 -0.47 1.45 -0.32 4.22 -0.68 8.63 -1.13 12.85 -1.30 25.95 0.88 35.38 5.90 0.63 0.35 2.83 2.47 3.92 3.80 l 0.52 0.68 7.65 0 7.63 0 1.70 -1.77 z "/>
  <path d="M 80.75 149.50 c -0.30 -0.20 -0.30 -0.28 0.05 -0.68 0.20 -0.25 0.65 -0.95 0.95 -1.58 1.30 -2.60 7.75 -9.07 10.25 -10.27 0.55 -0.28 2.15 -1.23 3.55 -2.15 5.80 -3.75 13.15 -6.40 20.83 -7.47 1.38 -0.20 3.35 -0.47 4.38 -0.60 2.65 -0.38 10.82 -0.28 13.98 0.15 1.45 0.20 3.28 0.45 4.03 0.55 l 1.38 0.17 0.08 7.20 c 0.03 3.95 -0.03 7.18 -0.13 7.18 -0.13 0 -0.80 -0.22 -1.50 -0.50 -3.30 -1.25 -8.88 -2.50 -13.70 -3.05 -3.83 -0.43 -16.45 -0.32 -19.38 0.15 -5.57 0.93 -9.32 2.03 -13.45 3.92 -2.50 1.15 -8.27 5.07 -9.75 6.63 -0.60 0.65 -0.98 0.73 -1.55 0.35 z "/>
  <path d="M 72.20 148.13 c -0.88 -0.77 -2.20 -1.80 -2.95 -2.30 -0.75 -0.47 -1.77 -1.15 -2.25 -1.48 -2.80 -1.83 -8.52 -3.83 -14.50 -5.07 -5.28 -1.10 -5.93 -1.15 -14.88 -1.15 -9.90 0.03 -13.10 0.30 -20.50 1.90 -2.85 0.63 -8.63 2.17 -9.18 2.47 -0.28 0.15 -0.45 0.13 -0.55 -0.15 -0.08 -0.22 -0.15 -21.30 -0.15 -46.85 0 -44.03 0.03 -46.47 0.45 -46.60 0.22 -0.08 1.05 -0.20 1.80 -0.28 2.75 -0.25 4.88 -0.55 5.30 -0.75 0.43 -0.17 0.45 1.88 0.50 38.40 0.08 38.15 0.08 38.60 0.57 39.28 0.82 1.15 1.88 1.27 6.97 0.93 6.03 -0.40 14.05 -0.17 18.05 0.52 8.38 1.45 15.48 4.20 21.60 8.38 1.50 1.02 2.85 1.88 2.95 1.88 0.38 0 3.42 3.42 5.60 6.28 1.17 1.55 3.45 5.28 3.45 5.65 0 0.65 -0.75 0.30 -2.30 -1.05 z "/>
  <path d="M 75 139.35 c 0 -0.47 -3.92 -4.30 -7.22 -7.05 -2.85 -2.40 -9.75 -6.13 -14.77 -7.97 -4.13 -1.55 -5.13 -1.80 -9.25 -2.33 -9.52 -1.23 -11.32 -1.35 -16 -1.02 -2.40 0.17 -4.97 0.35 -5.68 0.40 l -1.33 0.10 0 -42.20 0 -42.20 1.63 -0.30 c 1.02 -0.17 4.30 -0.30 8.85 -0.28 7.85 0 10.85 0.30 16.65 1.65 6.03 1.42 12.68 4.50 17.75 8.25 0.82 0.60 1.83 1.30 2.22 1.52 1.05 0.65 5.10 4.70 6.40 6.40 l 1.10 1.48 -0.03 41.72 c 0 22.95 -0.08 41.80 -0.17 41.90 -0.08 0.08 -0.15 0.05 -0.15 -0.08 z "/>
  <path d="M144 67.05 C 144 69.68 141.88 71.80 139.25 71.80 136.65 71.80 134.52 69.68 134.52 67.05 134.52 64.43 136.65 62.30 139.25 62.30 141.88 62.30 144 64.43 144 67.05 Z M137.13 71.30 "/>
  <path d="M139.90 36.92 C 139.90 39.63 137.73 41.80 135.02 41.80 132.35 41.80 130.18 39.63 130.18 36.92 130.18 34.25 132.35 32.08 135.02 32.08 137.73 32.08 139.90 34.25 139.90 36.92 Z M132.88 41.28 "/>
  <path d="M111 11.23 C 111 13.95 108.78 16.15 106.05 16.15 103.32 16.15 101.13 13.95 101.13 11.23 101.13 8.50 103.32 6.28 106.05 6.28 108.78 6.28 111 8.50 111 11.23 Z M104.60 16.08 "/>
 </g>
</svg>